<mxfile host="app.diagrams.net" modified="2023-05-02T22:37:25.903Z" agent="Mozilla/5.0 (Windows NT 10.0; Win64; x64) AppleWebKit/537.36 (KHTML, like Gecko) Chrome/112.0.0.0 Safari/537.36" etag="oGJ3NP3XzLz4BfMB-T1c" version="21.2.3" type="device">
  <diagram name="Page-1" id="LgU3ze28PsP4KxR0T5hz">
    <mxGraphModel dx="1434" dy="796" grid="1" gridSize="10" guides="1" tooltips="1" connect="1" arrows="1" fold="1" page="1" pageScale="1" pageWidth="850" pageHeight="1100" math="0" shadow="0">
      <root>
        <mxCell id="0" />
        <mxCell id="1" parent="0" />
        <mxCell id="KVdXiiYHrdfkJZt57n9m-1" value="&lt;font style=&quot;font-size: 20px;&quot;&gt;Infrastucture (Laptop/PC)&lt;/font&gt;" style="rounded=1;whiteSpace=wrap;html=1;" vertex="1" parent="1">
          <mxGeometry x="330" y="370" width="420" height="70" as="geometry" />
        </mxCell>
        <mxCell id="KVdXiiYHrdfkJZt57n9m-2" value="&lt;font style=&quot;font-size: 36px;&quot;&gt;Windows&lt;/font&gt;" style="text;html=1;align=center;verticalAlign=middle;resizable=0;points=[];autosize=1;strokeColor=none;fillColor=none;" vertex="1" parent="1">
          <mxGeometry x="80" y="180" width="170" height="60" as="geometry" />
        </mxCell>
        <mxCell id="KVdXiiYHrdfkJZt57n9m-3" value="&lt;span style=&quot;color: rgb(0, 0, 0); font-family: Helvetica; font-size: 20px; font-style: normal; font-variant-ligatures: normal; font-variant-caps: normal; font-weight: 400; letter-spacing: normal; orphans: 2; text-align: center; text-indent: 0px; text-transform: none; widows: 2; word-spacing: 0px; -webkit-text-stroke-width: 0px; background-color: rgb(251, 251, 251); text-decoration-thickness: initial; text-decoration-style: initial; text-decoration-color: initial; float: none; display: inline !important;&quot;&gt;Hypervisor&lt;br&gt;&lt;/span&gt;" style="rounded=1;whiteSpace=wrap;html=1;" vertex="1" parent="1">
          <mxGeometry x="330" y="320" width="420" height="40" as="geometry" />
        </mxCell>
        <mxCell id="KVdXiiYHrdfkJZt57n9m-4" value="&lt;font style=&quot;font-size: 20px;&quot;&gt;WSL OS&lt;/font&gt;" style="rounded=1;whiteSpace=wrap;html=1;" vertex="1" parent="1">
          <mxGeometry x="330" y="230" width="160" height="80" as="geometry" />
        </mxCell>
        <mxCell id="KVdXiiYHrdfkJZt57n9m-5" value="&lt;font style=&quot;font-size: 20px;&quot;&gt;Bins/Lib&lt;/font&gt;" style="rounded=1;whiteSpace=wrap;html=1;" vertex="1" parent="1">
          <mxGeometry x="330" y="180" width="160" height="40" as="geometry" />
        </mxCell>
        <mxCell id="KVdXiiYHrdfkJZt57n9m-6" value="&lt;span style=&quot;font-size: 20px;&quot;&gt;App: Kubectl&lt;/span&gt;" style="rounded=1;whiteSpace=wrap;html=1;" vertex="1" parent="1">
          <mxGeometry x="330" y="130" width="160" height="40" as="geometry" />
        </mxCell>
        <mxCell id="KVdXiiYHrdfkJZt57n9m-7" value="&lt;font style=&quot;font-size: 20px;&quot;&gt;Guest OS&lt;br&gt;(Minikube Node)&lt;br&gt;&lt;/font&gt;" style="rounded=1;whiteSpace=wrap;html=1;" vertex="1" parent="1">
          <mxGeometry x="560" y="230" width="190" height="80" as="geometry" />
        </mxCell>
        <mxCell id="KVdXiiYHrdfkJZt57n9m-8" value="&lt;font style=&quot;font-size: 20px;&quot;&gt;Container Engine&lt;/font&gt;" style="rounded=1;whiteSpace=wrap;html=1;" vertex="1" parent="1">
          <mxGeometry x="560" y="180" width="190" height="40" as="geometry" />
        </mxCell>
        <mxCell id="KVdXiiYHrdfkJZt57n9m-10" value="&lt;font style=&quot;font-size: 20px;&quot;&gt;Bins/Lib&lt;/font&gt;" style="rounded=1;whiteSpace=wrap;html=1;" vertex="1" parent="1">
          <mxGeometry x="560" y="130" width="90" height="40" as="geometry" />
        </mxCell>
        <mxCell id="KVdXiiYHrdfkJZt57n9m-11" value="&lt;span style=&quot;font-size: 20px;&quot;&gt;App1&lt;/span&gt;" style="rounded=1;whiteSpace=wrap;html=1;" vertex="1" parent="1">
          <mxGeometry x="560" y="80" width="90" height="40" as="geometry" />
        </mxCell>
        <mxCell id="KVdXiiYHrdfkJZt57n9m-12" value="&lt;font style=&quot;font-size: 20px;&quot;&gt;Bins/Lib&lt;/font&gt;" style="rounded=1;whiteSpace=wrap;html=1;" vertex="1" parent="1">
          <mxGeometry x="660" y="130" width="90" height="40" as="geometry" />
        </mxCell>
        <mxCell id="KVdXiiYHrdfkJZt57n9m-13" value="&lt;span style=&quot;font-size: 20px;&quot;&gt;App2&lt;/span&gt;" style="rounded=1;whiteSpace=wrap;html=1;" vertex="1" parent="1">
          <mxGeometry x="660" y="80" width="90" height="40" as="geometry" />
        </mxCell>
        <mxCell id="KVdXiiYHrdfkJZt57n9m-15" value="" style="verticalLabelPosition=bottom;verticalAlign=top;html=1;shape=mxgraph.basic.x;fillColor=#a20025;strokeColor=#6F0000;fontColor=#ffffff;opacity=60;" vertex="1" parent="1">
          <mxGeometry x="490" y="230" width="70" height="60" as="geometry" />
        </mxCell>
        <mxCell id="KVdXiiYHrdfkJZt57n9m-18" value="&lt;font style=&quot;font-size: 26px;&quot;&gt;No connection&lt;/font&gt;" style="text;html=1;align=center;verticalAlign=middle;resizable=0;points=[];autosize=1;strokeColor=none;fillColor=none;strokeWidth=1;" vertex="1" parent="1">
          <mxGeometry x="435" y="10" width="190" height="40" as="geometry" />
        </mxCell>
        <mxCell id="KVdXiiYHrdfkJZt57n9m-19" value="&lt;font style=&quot;font-size: 20px;&quot;&gt;Infrastucture (Laptop/PC)&lt;/font&gt;" style="rounded=1;whiteSpace=wrap;html=1;" vertex="1" parent="1">
          <mxGeometry x="330" y="910" width="420" height="70" as="geometry" />
        </mxCell>
        <mxCell id="KVdXiiYHrdfkJZt57n9m-20" value="&lt;font style=&quot;font-size: 36px;&quot;&gt;Linux/Mac&lt;/font&gt;" style="text;html=1;align=center;verticalAlign=middle;resizable=0;points=[];autosize=1;strokeColor=none;fillColor=none;" vertex="1" parent="1">
          <mxGeometry x="70" y="670" width="190" height="60" as="geometry" />
        </mxCell>
        <mxCell id="KVdXiiYHrdfkJZt57n9m-21" value="&lt;span style=&quot;color: rgb(0, 0, 0); font-family: Helvetica; font-size: 20px; font-style: normal; font-variant-ligatures: normal; font-variant-caps: normal; font-weight: 400; letter-spacing: normal; orphans: 2; text-align: center; text-indent: 0px; text-transform: none; widows: 2; word-spacing: 0px; -webkit-text-stroke-width: 0px; background-color: rgb(251, 251, 251); text-decoration-thickness: initial; text-decoration-style: initial; text-decoration-color: initial; float: none; display: inline !important;&quot;&gt;Hypervisor&lt;br&gt;&lt;/span&gt;" style="rounded=1;whiteSpace=wrap;html=1;" vertex="1" parent="1">
          <mxGeometry x="560" y="810" width="190" height="40" as="geometry" />
        </mxCell>
        <mxCell id="KVdXiiYHrdfkJZt57n9m-22" value="&lt;font style=&quot;font-size: 20px;&quot;&gt;Linux/Mac OS&lt;/font&gt;" style="rounded=1;whiteSpace=wrap;html=1;" vertex="1" parent="1">
          <mxGeometry x="330" y="860" width="420" height="40" as="geometry" />
        </mxCell>
        <mxCell id="KVdXiiYHrdfkJZt57n9m-23" value="&lt;font style=&quot;font-size: 20px;&quot;&gt;Bins/Lib&lt;/font&gt;" style="rounded=1;whiteSpace=wrap;html=1;" vertex="1" parent="1">
          <mxGeometry x="330" y="810" width="160" height="40" as="geometry" />
        </mxCell>
        <mxCell id="KVdXiiYHrdfkJZt57n9m-26" value="&lt;font style=&quot;font-size: 20px;&quot;&gt;Guest OS&lt;br&gt;(Minikube Node)&lt;br&gt;&lt;/font&gt;" style="rounded=1;whiteSpace=wrap;html=1;" vertex="1" parent="1">
          <mxGeometry x="560" y="720" width="190" height="80" as="geometry" />
        </mxCell>
        <mxCell id="KVdXiiYHrdfkJZt57n9m-24" style="edgeStyle=orthogonalEdgeStyle;rounded=0;orthogonalLoop=1;jettySize=auto;html=1;entryX=0.105;entryY=1;entryDx=0;entryDy=0;strokeWidth=6;shadow=0;exitX=0.838;exitY=1.05;exitDx=0;exitDy=0;exitPerimeter=0;entryPerimeter=0;" edge="1" parent="1" source="KVdXiiYHrdfkJZt57n9m-25" target="KVdXiiYHrdfkJZt57n9m-27">
          <mxGeometry relative="1" as="geometry">
            <Array as="points">
              <mxPoint x="464" y="870" />
              <mxPoint x="580" y="870" />
            </Array>
          </mxGeometry>
        </mxCell>
        <mxCell id="KVdXiiYHrdfkJZt57n9m-25" value="&lt;span style=&quot;font-size: 20px;&quot;&gt;App: Kubectl&lt;/span&gt;" style="rounded=1;whiteSpace=wrap;html=1;" vertex="1" parent="1">
          <mxGeometry x="330" y="760" width="160" height="40" as="geometry" />
        </mxCell>
        <mxCell id="KVdXiiYHrdfkJZt57n9m-27" value="&lt;font style=&quot;font-size: 20px;&quot;&gt;Container Engine&lt;/font&gt;" style="rounded=1;whiteSpace=wrap;html=1;" vertex="1" parent="1">
          <mxGeometry x="560" y="670" width="190" height="40" as="geometry" />
        </mxCell>
        <mxCell id="KVdXiiYHrdfkJZt57n9m-28" value="&lt;font style=&quot;font-size: 20px;&quot;&gt;Bins/Lib&lt;/font&gt;" style="rounded=1;whiteSpace=wrap;html=1;" vertex="1" parent="1">
          <mxGeometry x="560" y="620" width="90" height="40" as="geometry" />
        </mxCell>
        <mxCell id="KVdXiiYHrdfkJZt57n9m-29" value="&lt;span style=&quot;font-size: 20px;&quot;&gt;App1&lt;/span&gt;" style="rounded=1;whiteSpace=wrap;html=1;" vertex="1" parent="1">
          <mxGeometry x="560" y="570" width="90" height="40" as="geometry" />
        </mxCell>
        <mxCell id="KVdXiiYHrdfkJZt57n9m-30" value="&lt;font style=&quot;font-size: 20px;&quot;&gt;Bins/Lib&lt;/font&gt;" style="rounded=1;whiteSpace=wrap;html=1;" vertex="1" parent="1">
          <mxGeometry x="660" y="620" width="90" height="40" as="geometry" />
        </mxCell>
        <mxCell id="KVdXiiYHrdfkJZt57n9m-31" value="&lt;span style=&quot;font-size: 20px;&quot;&gt;App2&lt;/span&gt;" style="rounded=1;whiteSpace=wrap;html=1;" vertex="1" parent="1">
          <mxGeometry x="660" y="570" width="90" height="40" as="geometry" />
        </mxCell>
        <mxCell id="KVdXiiYHrdfkJZt57n9m-33" value="&lt;font style=&quot;font-size: 26px;&quot;&gt;Connection&lt;/font&gt;" style="text;html=1;align=center;verticalAlign=middle;resizable=0;points=[];autosize=1;strokeColor=none;fillColor=none;strokeWidth=1;" vertex="1" parent="1">
          <mxGeometry x="435" y="520" width="160" height="40" as="geometry" />
        </mxCell>
        <mxCell id="KVdXiiYHrdfkJZt57n9m-14" style="edgeStyle=orthogonalEdgeStyle;rounded=0;orthogonalLoop=1;jettySize=auto;html=1;strokeWidth=6;shadow=0;entryX=0.195;entryY=0.975;entryDx=0;entryDy=0;entryPerimeter=0;" edge="1" parent="1" source="KVdXiiYHrdfkJZt57n9m-6" target="KVdXiiYHrdfkJZt57n9m-8">
          <mxGeometry relative="1" as="geometry">
            <mxPoint x="560" y="260" as="targetPoint" />
            <Array as="points">
              <mxPoint x="470" y="260" />
              <mxPoint x="597" y="260" />
            </Array>
          </mxGeometry>
        </mxCell>
        <mxCell id="KVdXiiYHrdfkJZt57n9m-36" value="" style="endArrow=none;html=1;rounded=0;dashed=1;" edge="1" parent="1">
          <mxGeometry width="50" height="50" relative="1" as="geometry">
            <mxPoint x="30" y="490" as="sourcePoint" />
            <mxPoint x="790" y="490" as="targetPoint" />
          </mxGeometry>
        </mxCell>
        <mxCell id="KVdXiiYHrdfkJZt57n9m-37" value="" style="verticalLabelPosition=bottom;verticalAlign=top;html=1;shape=mxgraph.basic.tick;fillColor=#60a917;fontColor=#ffffff;strokeColor=#2D7600;opacity=70;" vertex="1" parent="1">
          <mxGeometry x="500" y="750" width="50" height="70" as="geometry" />
        </mxCell>
      </root>
    </mxGraphModel>
  </diagram>
</mxfile>
